<svg id="Layer_1" data-name="Layer 1" xmlns="http://www.w3.org/2000/svg" viewBox="0 0 512 512">
  <title>slack-logo</title>
  <path id="Slack" d="M285.492,198.135h0l-87.354,28.383,28.387,87.368,87.362-28.4L285.5,198.135ZM0,0V512H512V0ZM460.271,325.192l-41.813,13.586,14.021,43.152c7.029,21.634-6.4,45.029-28.426,51.37a41.5,41.5,0,0,1-50.488-25.733l-14.024-43.148-87.373,28.389,14.021,43.151c7.029,21.638-6.4,45.033-28.426,51.37A41.5,41.5,0,0,1,187.275,461.6L173.25,418.45l-43.179,14.029c-21.634,7.029-45.029-6.4-51.37-28.426a41.5,41.5,0,0,1,25.733-50.484L147.6,339.538h0l-28.4-87.373L76.042,266.189c-21.638,7.029-45.033-6.4-51.37-28.426A41.492,41.492,0,0,1,50.4,187.279l43.154-14.026v0h0l-13.6-41.838A41.5,41.5,0,1,1,158.9,105.759l13.593,41.835L259.84,119.2v0h0L246.247,77.378A41.5,41.5,0,1,1,325.188,51.73l13.587,41.816h0v0l41.812-13.59A41.5,41.5,0,1,1,406.242,158.9l-41.816,13.586,28.382,87.348h0v0l41.812-13.59a41.5,41.5,0,0,1,25.649,78.945Z" fill="#fff"/>
</svg>
