<?xml version="1.0" encoding="utf-8"?>
<!-- Generator: Adobe Illustrator 17.0.2, SVG Export Plug-In . SVG Version: 6.00 Build 0)  -->
<!DOCTYPE svg PUBLIC "-//W3C//DTD SVG 1.1//EN" "http://www.w3.org/Graphics/SVG/1.1/DTD/svg11.dtd">
<svg version="1.1" id="Layer_1" xmlns="http://www.w3.org/2000/svg" xmlns:xlink="http://www.w3.org/1999/xlink" x="0px" y="0px"
	 width="512px" height="512px" viewBox="0 0 512 512" enable-background="new 0 0 512 512" xml:space="preserve">
<path fill="#fff" d="M-10-10v532h532V-10H-10z M395.901,364.135c-0.759,18.081,1.461,44.896,18.127,62.219
	c-20.968-6.916-47.166-28.051-64.487-43.561c-16.233,4.005-33.955,6.213-52.519,6.213C219.138,389.006,156,350.218,156,302.37
	s63.138-86.636,141.023-86.636s141.023,38.788,141.023,86.636C438.045,326.553,421.91,348.418,395.901,364.135z M437.571,266.523
	c-7.797-12.699-19.813-24.238-35.597-33.934c-28.188-17.317-65.461-26.854-104.952-26.854c-39.491,0-76.764,9.537-104.952,26.854
	C162.361,250.84,146,275.622,146,302.37c0,14.847,5.049,29.086,14.615,41.941c-22.671,18.732-49.878,38.17-72.757,45.76
	c23.95-25.038,27.14-63.797,26.05-89.931c-37.376-22.716-60.563-54.319-60.563-89.273c0-69.158,90.732-125.221,202.655-125.221
	s202.655,56.063,202.655,125.221C458.655,230.861,451.058,249.756,437.571,266.523z"/>
</svg>
